<svg xmlns="http://www.w3.org/2000/svg" viewBox="0 0 64 64">
  <defs>
    <linearGradient id="g" x1="0" y1="0" x2="1" y2="1">
      <stop offset="0%" stop-color="#00D4AA"/>
      <stop offset="100%" stop-color="#1AE6BD"/>
    </linearGradient>
  </defs>
  <rect width="64" height="64" rx="14" fill="url(#g)"/>
  <g fill="none" stroke="#ffffff" stroke-width="3" stroke-linecap="round" stroke-linejoin="round">
    <path d="M32 14 L29.4 22.3 a3 3 0 0 1 -1.9 1.9 L19.2 26.8 l8.3 2.6 a3 3 0 0 1 1.9 1.9 L32 39.6 l2.6 -8.3 a3 3 0 0 1 1.9 -1.9 l8.3 -2.6 -8.3 -2.6 a3 3 0 0 1 -1.9 -1.9 z"/>
    <path d="M16 18 v6"/>
    <path d="M48 40 v6"/>
    <path d="M13 21 h6"/>
    <path d="M45 43 h6"/>
  </g>
</svg>
